<svg height="512pt" viewBox="0 0 512 512" width="512pt" xmlns="http://www.w3.org/2000/svg"><path d="M432 512H80c-44.184 0-80-35.816-80-80V80C0 35.816 35.816 0 80 0h352c44.184 0 80 35.816 80 80v352c0 44.184-35.816 80-80 80zm0 0" fill="#77959e"/><path d="M80 32c-26.508 0-48 21.492-48 48v352c0 26.508 21.492 48 48 48h352c26.508 0 48-21.492 48-48V80c0-26.508-21.492-48-48-48zm0 0" fill="#addb31"/><path d="M176 390.625l-80-80c-6.246-6.25-6.246-16.379 0-22.625s16.375-6.246 22.625 0L176 345.375 393.375 128c6.25-6.246 16.379-6.246 22.625 0s6.246 16.375 0 22.625zm0 0" fill="#fff"/></svg>